<svg xmlns="http://www.w3.org/2000/svg" id="mermaid-1618922625421" width="3609.238" height="1539.5" class="statediagram" viewBox="0 0 3609.238 1539.5"><style>#mermaid-1618922625421 .label{font-family:&apos;trebuchet ms&apos;,verdana,arial;font-family:var(--mermaid-font-family);color:#333}#mermaid-1618922625421 .label text{fill:#333}#mermaid-1618922625421 .node circle,#mermaid-1618922625421 .node path,#mermaid-1618922625421 .node rect{fill:#ececff;stroke:#9370db;stroke-width:1px}#mermaid-1618922625421 .node .label{text-align:center}#mermaid-1618922625421 .edgeLabel{background-color:#e8e8e8;text-align:center}#mermaid-1618922625421 .edgeLabel rect{opacity:.5}#mermaid-1618922625421 .transition{stroke:#9370db;stroke-width:1;fill:none}#mermaid-1618922625421 .node circle.state-start{fill:#000;stroke:#000}#mermaid-1618922625421 #statediagram-barbEnd{fill:#9370db}#mermaid-1618922625421 .statediagram-state .divider{stroke:#9370db}#mermaid-1618922625421 .statediagram-state .title-state{rx:5px;ry:5px}#mermaid-1618922625421 .statediagram-state rect.divider{stroke-dasharray:10,10;fill:#efefef}#mermaid-1618922625421 .note-edge{stroke-dasharray:5}#mermaid-1618922625421 .statediagram-note rect{fill:#fff5ad;stroke:#aa3;stroke-width:1px;rx:0;ry:0}:root{--mermaid-font-family:&apos;&quot;trebuchet ms&quot;, verdana, arial&apos;;--mermaid-font-family:&quot;Comic Sans MS&quot;, &quot;Comic Sans&quot;, cursive;--mermaid-font-family:&quot;trebuchet ms&quot;, verdana, arial}</style><style>#mermaid-1618922625421{color:#000;font:16px &quot;trebuchet ms&quot;,verdana,arial}</style><g><defs><marker id="statediagram-barbEnd" markerHeight="14" markerUnits="0" markerWidth="20" orient="auto" refX="19" refY="7"><path d="M 19,7 L9,13 L14,7 L9,1 Z"/></marker></defs><g class="root"><g class="clusters"><g id="DealStatusNew----parent" class="note-cluster"><rect width="1054.105" height="286.5" x="8" y="133" fill="none"/></g><g id="DealStatusFailing----parent" class="note-cluster"><rect width="1103.633" height="229.5" x="949.219" y="1069.5" fill="none"/></g><g id="DealStatusFundsNeeded----parent" class="note-cluster"><rect width="810.613" height="228" x="1147.664" y="772.5" fill="none"/></g><g id="DealStatusOngoing----parent" class="note-cluster"><rect width="465.719" height="254.5" x="1978.277" y="618" fill="none"/></g><g id="DealStatusBlocksComplete----parent" class="note-cluster"><rect width="671.391" height="228" x="2463.996" y="772.5" fill="none"/></g><g id="DealStatusFinalizing----parent" class="note-cluster"><rect width="475.375" height="229.5" x="3125.863" y="1069.5" fill="none"/></g><g id="DealStatusCancelling----parent" class="note-cluster"><rect width="416.25" height="235.5" x="1082.105" y="8" fill="none"/></g></g><g class="edgePaths"><path id="edge0" marker-end="url(#statediagram-barbEnd)" d="M592.1171875,65L592.1171875,72.16666666666667C592.1171875,79.33333333333333,592.1171875,93.66666666666667,592.1171875,105C592.1171875,116.33333333333333,592.1171875,124.66666666666667,592.1171875,135.20833333333334C592.1171875,145.75,592.1171875,158.5,592.1171875,164.875L592.1171875,171.25" class="transition"/><path d="M531.359375,200.49820415609588L495.8072916666667,207.6651701300799C460.2552083333333,214.83213610406392,389.1510416666667,229.16606805203196,353.5989583333333,242.08303402601598C318.046875,255,318.046875,266.5,318.046875,278C318.046875,289.5,318.046875,301,318.046875,306.75L318.046875,312.5" class="transition note-edge"/><path id="edge1" marker-end="url(#statediagram-barbEnd)" d="M652.875,184.48657842300028L688.4908854166666,182.2804820191669C724.1067708333334,180.07438561533354,795.3385416666666,175.66219280766677,839.8583984375,173.45609640383339C884.3782552083334,171.25,902.1861979166666,171.25,919.994140625,174.08333333333334C937.8020833333334,176.91666666666666,955.6100260416666,182.58333333333334,955.6100260416666,188.25C955.6100260416666,193.91666666666666,937.8020833333334,199.58333333333334,919.994140625,202.41666666666666C902.1861979166666,205.25,884.3782552083334,205.25,839.8583984375,203.04390359616661C795.3385416666666,200.83780719233323,724.1067708333334,196.42561438466646,688.4908854166666,194.2195179808331L652.875,192.01342157699972" class="transition"/><path id="edge2" marker-end="url(#statediagram-barbEnd)" d="M633.7686298076923,205.25L649.3879206730769,211.625C665.0072115384615,218,696.2457932692308,230.75,711.8650841346154,242.875C727.484375,255,727.484375,266.5,727.484375,284.8333333333333C727.484375,303.1666666666667,727.484375,328.3333333333333,727.484375,351.9166666666667C727.484375,375.5,727.484375,397.5,727.484375,414.25C727.484375,431,727.484375,442.5,774.5540364583334,456.24584652777065C821.6236979166666,469.99169305554136,915.7630208333334,485.98338611108267,962.8326822916666,493.9792326388533L1009.90234375,501.97507916662397" class="transition"/><path id="edge3" marker-end="url(#statediagram-barbEnd)" d="M1654.40234375,336.3809663499754L1669.3346354166667,334.1924719583128C1684.2669270833333,332.00397756665024,1714.1315104166667,327.6269887833251,1732.796875,325.4384943916626C1751.4622395833333,323.25,1758.9283854166667,323.25,1766.39453125,328.2916666666667C1773.8606770833333,333.3333333333333,1781.3268229166667,343.4166666666667,1781.3268229166667,353.5C1781.3268229166667,363.5833333333333,1773.8606770833333,373.6666666666667,1766.39453125,378.7083333333333C1758.9283854166667,383.75,1751.4622395833333,383.75,1732.796875,381.5615056083374C1714.1315104166667,379.3730112166749,1684.2669270833333,374.99602243334976,1669.3346354166667,372.8075280416872L1654.40234375,370.6190336500246" class="transition"/><path id="edge4" marker-end="url(#statediagram-barbEnd)" d="M1074.6776665057914,549L1068.2196700048262,554.75C1061.761673503861,560.5,1048.8456805019305,572,1042.3876840009652,583.5C1035.9296875,595,1035.9296875,606.5,1035.9296875,621.4583333333334C1035.9296875,636.4166666666666,1035.9296875,654.8333333333334,1035.9296875,674.8333333333334C1035.9296875,694.8333333333334,1035.9296875,716.4166666666666,1035.9296875,732.9583333333334C1035.9296875,749.5,1035.9296875,761,1035.9296875,775.0833333333334C1035.9296875,789.1666666666666,1035.9296875,805.8333333333334,1035.9296875,822.5C1035.9296875,839.1666666666666,1035.9296875,855.8333333333334,1035.9296875,869.9166666666666C1035.9296875,884,1035.9296875,895.5,1035.9296875,909.8333333333334C1035.9296875,924.1666666666666,1035.9296875,941.3333333333334,1035.9296875,956.9166666666666C1035.9296875,972.5,1035.9296875,986.5,1035.9296875,999.25C1035.9296875,1012,1035.9296875,1023.5,1035.9296875,1035C1035.9296875,1046.5,1035.9296875,1058,1035.9296875,1072.0833333333333C1035.9296875,1086.1666666666667,1035.9296875,1102.8333333333333,1035.9296875,1121.0833333333333C1035.9296875,1139.3333333333333,1035.9296875,1159.1666666666667,1111.515625,1177.9506225701127C1187.1015625,1196.734578473559,1338.2734375,1214.469156947118,1413.859375,1223.3364461838976L1489.4453125,1232.203735420677" class="transition"/><path id="edge5" marker-end="url(#statediagram-barbEnd)" d="M1191.67742519305,549L1207.4590522442084,554.75C1223.2406792953668,560.5,1254.8039333976833,572,1270.5855604488418,583.5C1286.3671875,595,1286.3671875,606.5,1286.3671875,616.4166666666666C1286.3671875,626.3333333333334,1286.3671875,634.6666666666666,1286.3671875,638.8333333333334L1286.3671875,643" class="transition"/><path id="edge6" marker-end="url(#statediagram-barbEnd)" d="M1390.9375,681.7246253697411L1506.669921875,691.1038544747844C1622.40234375,700.4830835798275,1853.8671875,719.2415417899138,1969.599609375,734.3707708949569C2085.33203125,749.5,2085.33203125,761,2091.10875,772.25C2096.88546875,783.5,2108.43890625,794.5,2114.2156250000003,800L2119.99234375,805.5" class="transition"/><path id="edge7" marker-end="url(#statediagram-barbEnd)" d="M2211.92578125,814.5682653195119L2226.0412326388887,813.0568877662599C2240.156684027778,811.5455102130078,2268.387586805555,808.522755106504,2286.0319010416665,807.0113775532519C2303.676215277778,805.5,2310.733940972222,805.5,2317.7916666666665,808.3333333333334C2324.8493923611113,811.1666666666666,2331.9071180555557,816.8333333333334,2331.907118055556,822.5C2331.9071180555557,828.1666666666666,2324.8493923611113,833.8333333333334,2317.7916666666665,836.6666666666666C2310.733940972222,839.5,2303.676215277778,839.5,2286.0319010416665,837.9886224467481C2268.387586805555,836.477244893496,2240.156684027778,833.4544897869922,2226.0412326388887,831.9431122337402L2211.92578125,830.4317346804881" class="transition"/><path id="edge8" marker-end="url(#statediagram-barbEnd)" d="M2191.08421875,839.5L2208.3078125,845C2225.53140625,850.5,2259.97859375,861.5,2327.84671875,872.75C2395.71484375,884,2497.00390625,895.5,2568.712871662621,907C2640.421837075243,918.5,2682.550705400485,930,2703.6151395631064,935.75L2724.679573725728,941.5" class="transition"/><path id="edge9" marker-end="url(#statediagram-barbEnd)" d="M652.875,200.49820415609588L688.4270833333334,207.6651701300799C723.9791666666666,214.83213610406392,795.0833333333334,229.16606805203196,830.6354166666666,242.08303402601598C866.1875,255,866.1875,266.5,958.6217447916666,282.64422090477325C1051.0559895833333,298.78844180954655,1235.9244791666667,319.57688361909305,1328.3587239583333,329.97110452386636L1420.79296875,340.3653254286396" class="transition"/><path id="edge10" marker-end="url(#statediagram-barbEnd)" d="M1286.3671875,703.5L1286.3671875,709.25C1286.3671875,715,1286.3671875,726.5,1286.3671875,738C1286.3671875,749.5,1286.3671875,761,1286.3671875,775.0833333333334C1286.3671875,789.1666666666666,1286.3671875,805.8333333333334,1286.3671875,822.5C1286.3671875,839.1666666666666,1286.3671875,855.8333333333334,1286.3671875,869.9166666666666C1286.3671875,884,1286.3671875,895.5,1312.3555825242718,907C1338.3439775485438,918.5,1390.3207675970873,930,1416.309162621359,935.75L1442.297557645631,941.5" class="transition"/><path id="edge11" marker-end="url(#statediagram-barbEnd)" d="M2105.53703125,839.5L2095.08359375,845C2084.63015625,850.5,2063.72328125,861.5,1950.3121614583333,872.75C1836.9010416666667,884,1630.9856770833333,895.5,1538.5301185780745,907C1446.0745600728158,918.5,1467.078807645631,930,1477.5809314320388,935.75L1488.0830552184466,941.5" class="transition"/><path id="edge12" marker-end="url(#statediagram-barbEnd)" d="M2692.0941220238096,975.5L2668.8434089781745,979.6666666666666C2645.5926959325398,983.8333333333334,2599.09126984127,992.1666666666666,2575.8405567956347,1002.0833333333334C2552.58984375,1012,2552.58984375,1023.5,2552.58984375,1035C2552.58984375,1046.5,2552.58984375,1058,2552.58984375,1069.25C2552.58984375,1080.5,2552.58984375,1091.5,2552.58984375,1097L2552.58984375,1102.5" class="transition"/><path id="edge13" marker-end="url(#statediagram-barbEnd)" d="M1519.1328125,975.5L1519.1328125,979.6666666666666C1519.1328125,983.8333333333334,1519.1328125,992.1666666666666,1519.1328125,1002.0833333333334C1519.1328125,1012,1519.1328125,1023.5,1519.1328125,1035C1519.1328125,1046.5,1519.1328125,1058,1519.1328125,1072.0833333333333C1519.1328125,1086.1666666666667,1519.1328125,1102.8333333333333,1519.1328125,1121.0833333333333C1519.1328125,1139.3333333333333,1519.1328125,1159.1666666666667,1525.23663730695,1174.8333333333333C1531.3404621138998,1190.5,1543.5481117277993,1202,1549.6519365347492,1207.75L1555.7557613416989,1213.5" class="transition"/><path id="edge14" marker-end="url(#statediagram-barbEnd)" d="M2413.68359375,1128.9494216426242L2291.0598958333335,1137.291184702187C2168.4361979166665,1145.6329477617494,1923.1888020833333,1162.3164738808748,1792.5662353201415,1176.4082369404375C1661.94366855695,1190.5,1645.9459308638998,1202,1637.9470620173745,1207.75L1629.9481931708494,1213.5" class="transition"/><path id="edge15" marker-end="url(#statediagram-barbEnd)" d="M1612.21875,951.2691639496418L1633.1792534722224,949.6409699580348C1654.1397569444443,948.0127759664279,1696.0607638888887,944.7563879832138,1722.2613932291663,943.128193991607C1748.4620225694443,941.5,1758.9422743055557,941.5,1769.4225260416667,944.3333333333334C1779.902777777778,947.1666666666666,1790.383029513889,952.8333333333334,1790.3830295138887,958.5C1790.383029513889,964.1666666666666,1779.902777777778,969.8333333333334,1769.422526041667,972.6666666666666C1758.9422743055557,975.5,1748.4620225694443,975.5,1722.2613932291667,973.871806008393C1696.0607638888887,972.2436120167862,1654.1397569444443,968.9872240335721,1633.179253472222,967.3590300419652L1612.21875,965.7308360503582" class="transition"/><path id="edge16" marker-end="url(#statediagram-barbEnd)" d="M2691.49609375,1110.1975933031042L2710.6532118055557,1108.9146610859202C2729.8103298611113,1107.6317288687362,2768.1245659722226,1105.0658644343682,2792.0709635416665,1103.782932217184C2816.0173611111113,1102.5,2825.5959201388887,1102.5,2835.1744791666665,1105.3333333333333C2844.753038194444,1108.1666666666667,2854.331597222222,1113.8333333333333,2854.331597222222,1119.5C2854.331597222222,1125.1666666666667,2844.753038194444,1130.8333333333333,2835.1744791666665,1133.6666666666667C2825.5959201388887,1136.5,2816.0173611111113,1136.5,2792.0709635416665,1135.217067782816C2768.1245659722226,1133.9341355656318,2729.8103298611113,1131.3682711312638,2710.6532118055557,1130.0853389140798L2691.49609375,1128.8024066968958" class="transition"/><path id="edge17" marker-end="url(#statediagram-barbEnd)" d="M1537.59765625,383.75L1537.59765625,389.7083333333333C1537.59765625,395.6666666666667,1537.59765625,407.5833333333333,1537.59765625,419.2916666666667C1537.59765625,431,1537.59765625,442.5,1482.5651041666667,456.55725419664265C1427.5325520833333,470.61450839328535,1317.4674479166667,487.22901678657075,1262.4348958333333,495.5362709832134L1207.40234375,503.8435251798561" class="transition"/><path id="edge18" marker-end="url(#statediagram-barbEnd)" d="M1594.2917930825242,941.5L1619.713212985437,935.75C1645.1346328883494,930,1695.9774726941748,918.5,1786.5701165554208,907C1877.1627604166667,895.5,2007.5052083333333,884,2072.6764322916665,872.75C2137.84765625,861.5,2137.84765625,850.5,2137.84765625,845L2137.84765625,839.5" class="transition"/><path id="edge19" marker-end="url(#statediagram-barbEnd)" d="M2691.49609375,1131.191809511179L2786.1614583333335,1139.1598412593157C2880.8268229166665,1147.1278730074525,3070.1575520833335,1163.0639365037262,3173.034749034749,1178.9903015851964C3275.911945986165,1194.9166666666667,3292.33561072233,1210.8333333333333,3300.5474430904123,1218.7916666666667L3308.7592754584944,1226.75" class="transition"/><path id="edge20" marker-end="url(#statediagram-barbEnd)" d="M2881.8199404761904,975.5L2905.0706535218255,979.6666666666666C2928.3213665674607,983.8333333333334,2974.82279265873,992.1666666666666,2998.0735057043653,1002.0833333333334C3021.32421875,1012,3021.32421875,1023.5,3021.32421875,1035C3021.32421875,1046.5,3021.32421875,1058,3021.32421875,1072.0833333333333C3021.32421875,1086.1666666666667,3021.32421875,1102.8333333333333,3021.32421875,1121.0833333333333C3021.32421875,1139.3333333333333,3021.32421875,1159.1666666666667,3021.32421875,1179.875C3021.32421875,1200.5833333333333,3021.32421875,1222.1666666666667,3021.32421875,1242.1666666666667C3021.32421875,1262.1666666666667,3021.32421875,1280.5833333333333,3021.32421875,1295.5416666666667C3021.32421875,1310.5,3021.32421875,1322,3037.8322273166027,1333.5C3054.3402358832045,1345,3087.356253016409,1356.5,3103.8642615830117,1362.25L3120.372270149614,1368" class="transition"/><path id="edge21" marker-end="url(#statediagram-barbEnd)" d="M3326.30078125,1260.75L3326.30078125,1267.125C3326.30078125,1273.5,3326.30078125,1286.25,3326.30078125,1298.375C3326.30078125,1310.5,3326.30078125,1322,3315.7259290540537,1333.5C3305.151076858108,1345,3284.0013724662163,1356.5,3273.42652027027,1362.25L3262.851668074324,1368" class="transition"/><path id="edge22" marker-end="url(#statediagram-barbEnd)" d="M3207.21875,1428.5L3207.21875,1434.25C3207.21875,1440,3207.21875,1451.5,3207.21875,1463C3207.21875,1474.5,3207.21875,1486,3207.21875,1491.75L3207.21875,1497.5" class="transition"/><path id="edge23" marker-end="url(#statediagram-barbEnd)" d="M1587.8671875,1274L1587.8671875,1278.1666666666667C1587.8671875,1282.3333333333333,1587.8671875,1290.6666666666667,1587.8671875,1300.5833333333333C1587.8671875,1310.5,1587.8671875,1322,1587.8671875,1335.7083333333333C1587.8671875,1349.4166666666667,1587.8671875,1365.3333333333333,1587.8671875,1373.2916666666667L1587.8671875,1381.25" class="transition"/><path id="edge24" marker-end="url(#statediagram-barbEnd)" d="M1290.23046875,218.5L1290.23046875,222.66666666666666C1290.23046875,226.83333333333334,1290.23046875,235.16666666666666,1290.23046875,245.08333333333334C1290.23046875,255,1290.23046875,266.5,1290.23046875,282C1290.23046875,297.5,1290.23046875,317,1290.23046875,326.75L1290.23046875,336.5" class="transition"/><path d="M1844.7265625,1144.5L1844.7265625,1150.25C1844.7265625,1156,1844.7265625,1167.5,1818.3203125,1179.9065788673277C1791.9140625,1192.3131577346555,1739.1015625,1205.6263154693108,1712.6953125,1212.2828943366385L1686.2890625,1218.9394732039661" class="transition note-edge"/><path d="M1613.1953125,847.5L1613.1953125,851.6666666666666C1613.1953125,855.8333333333334,1613.1953125,864.1666666666666,1613.1953125,874.0833333333334C1613.1953125,884,1613.1953125,895.5,1602.6931887135922,907C1592.1910649271842,918.5,1571.186817354369,930,1560.6846935679612,935.75L1550.1825697815534,941.5" class="transition note-edge"/><path d="M2190.36328125,698.25L2190.36328125,704.875C2190.36328125,711.5,2190.36328125,724.75,2190.36328125,737.125C2190.36328125,749.5,2190.36328125,761,2184.5865625,772.25C2178.80984375,783.5,2167.25640625,794.5,2161.4796874999997,800L2155.70296875,805.5" class="transition note-edge"/><path d="M2927.26171875,847.5L2927.26171875,851.6666666666666C2927.26171875,855.8333333333334,2927.26171875,864.1666666666666,2927.26171875,874.0833333333334C2927.26171875,884,2927.26171875,895.5,2911.5966322815534,907C2895.9315458131073,918.5,2864.6013728762136,930,2848.936286407767,935.75L2833.2711999393205,941.5" class="transition note-edge"/><path d="M3393.11328125,1144.5L3393.11328125,1150.25C3393.11328125,1156,3393.11328125,1167.5,3384.9014488819175,1181.2083333333333C3376.689616513835,1194.9166666666667,3360.26595177767,1210.8333333333333,3352.0541194095877,1218.7916666666667L3343.8422870415056,1226.75" class="transition note-edge"/><path d="M1290.23046875,83L1290.23046875,87.16666666666667C1290.23046875,91.33333333333333,1290.23046875,99.66666666666667,1290.23046875,108C1290.23046875,116.33333333333333,1290.23046875,124.66666666666667,1290.23046875,133C1290.23046875,141.33333333333334,1290.23046875,149.66666666666666,1290.23046875,153.83333333333334L1290.23046875,158" class="transition note-edge"/></g><g class="edgeLabels"><g class="edgeLabel"><g class="label" transform="translate(0, 0)"><rect style="fill:#e8e8e8" width="0" height="0" rx="0" ry="0"/></g></g><g class="edgeLabel"><g class="label" transform="translate(0, 0)"><rect style="fill:#e8e8e8" width="0" height="0" rx="0" ry="0"/></g></g><g class="edgeLabel"><g class="label" transform="translate(973.41796875, 188.25) translate(-68.6875, -9.5)"><rect style="fill:#e8e8e8" width="137.297" height="19.031" rx="0" ry="0"/><text><tspan x="0" class="row" dy="1em" xml:space="preserve">ProviderEventOpen</tspan></text></g></g><g class="edgeLabel"><g class="label" transform="translate(727.484375, 353.5) translate(-99.390625, -9.5)"><rect style="fill:#e8e8e8" width="198.656" height="19.031" rx="0" ry="0"/><text><tspan x="0" class="row" dy="1em" xml:space="preserve">ProviderEventDealAccepted</tspan></text></g></g><g class="edgeLabel"><g class="label" transform="translate(1788.79296875, 353.5) translate(-99.390625, -9.5)"><rect style="fill:#e8e8e8" width="198.656" height="19.031" rx="0" ry="0"/><text><tspan x="0" class="row" dy="1em" xml:space="preserve">ProviderEventDealAccepted</tspan></text></g></g><g class="edgeLabel"><g class="label" transform="translate(1035.9296875, 907) translate(-91.734375, -9.5)"><rect style="fill:#e8e8e8" width="183.359" height="19.031" rx="0" ry="0"/><text><tspan x="0" class="row" dy="1em" xml:space="preserve">ProviderEventUnsealError</tspan></text></g></g><g class="edgeLabel"><g class="label" transform="translate(1286.3671875, 583.5) translate(-108.2578125, -9.5)"><rect style="fill:#e8e8e8" width="216.391" height="19.031" rx="0" ry="0"/><text><tspan x="0" class="row" dy="1em" xml:space="preserve">ProviderEventUnsealComplete</tspan></text></g></g><g class="edgeLabel"><g class="label" transform="translate(2085.33203125, 738) translate(-85.03125, -9.5)"><rect style="fill:#e8e8e8" width="169.969" height="19.031" rx="0" ry="0"/><text><tspan x="0" class="row" dy="1em" xml:space="preserve">ProviderEventBlockSent</tspan></text></g></g><g class="edgeLabel"><g class="label" transform="translate(2338.96484375, 822.5) translate(-85.03125, -9.5)"><rect style="fill:#e8e8e8" width="169.969" height="19.031" rx="0" ry="0"/><text><tspan x="0" class="row" dy="1em" xml:space="preserve">ProviderEventBlockSent</tspan></text></g></g><g class="edgeLabel"><g class="label" transform="translate(2598.29296875, 907) translate(-111.40625, -9.5)"><rect style="fill:#e8e8e8" width="222.688" height="19.031" rx="0" ry="0"/><text><tspan x="0" class="row" dy="1em" xml:space="preserve">ProviderEventBlocksCompleted</tspan></text></g></g><g class="edgeLabel"><g class="label" transform="translate(866.1875, 278) translate(-118.703125, -9.5)"><rect style="fill:#e8e8e8" width="237.266" height="19.031" rx="0" ry="0"/><text><tspan x="0" class="row" dy="1em" xml:space="preserve">ProviderEventPaymentRequested</tspan></text></g></g><g class="edgeLabel"><g class="label" transform="translate(1286.3671875, 822.5) translate(-118.703125, -9.5)"><rect style="fill:#e8e8e8" width="237.266" height="19.031" rx="0" ry="0"/><text><tspan x="0" class="row" dy="1em" xml:space="preserve">ProviderEventPaymentRequested</tspan></text></g></g><g class="edgeLabel"><g class="label" transform="translate(1425.0703125, 907) translate(-118.703125, -9.5)"><rect style="fill:#e8e8e8" width="237.266" height="19.031" rx="0" ry="0"/><text><tspan x="0" class="row" dy="1em" xml:space="preserve">ProviderEventPaymentRequested</tspan></text></g></g><g class="edgeLabel"><g class="label" transform="translate(2552.58984375, 1035) translate(-118.703125, -9.5)"><rect style="fill:#e8e8e8" width="237.266" height="19.031" rx="0" ry="0"/><text><tspan x="0" class="row" dy="1em" xml:space="preserve">ProviderEventPaymentRequested</tspan></text></g></g><g class="edgeLabel"><g class="label" transform="translate(1519.1328125, 1119.5) translate(-117.46875, -9.5)"><rect style="fill:#e8e8e8" width="234.797" height="19.031" rx="0" ry="0"/><text><tspan x="0" class="row" dy="1em" xml:space="preserve">ProviderEventSaveVoucherFailed</tspan></text></g></g><g class="edgeLabel"><g class="label" transform="translate(1677.94140625, 1179) translate(-117.46875, -9.5)"><rect style="fill:#e8e8e8" width="234.797" height="19.031" rx="0" ry="0"/><text><tspan x="0" class="row" dy="1em" xml:space="preserve">ProviderEventSaveVoucherFailed</tspan></text></g></g><g class="edgeLabel"><g class="label" transform="translate(1800.86328125, 958.5) translate(-137.4140625, -9.5)"><rect style="fill:#e8e8e8" width="274.656" height="19.031" rx="0" ry="0"/><text><tspan x="0" class="row" dy="1em" xml:space="preserve">ProviderEventPartialPaymentReceived</tspan></text></g></g><g class="edgeLabel"><g class="label" transform="translate(2863.91015625, 1119.5) translate(-137.4140625, -9.5)"><rect style="fill:#e8e8e8" width="274.656" height="19.031" rx="0" ry="0"/><text><tspan x="0" class="row" dy="1em" xml:space="preserve">ProviderEventPartialPaymentReceived</tspan></text></g></g><g class="edgeLabel"><g class="label" transform="translate(1537.59765625, 454) translate(-113.625, -9.5)"><rect style="fill:#e8e8e8" width="227.109" height="19.031" rx="0" ry="0"/><text><tspan x="0" class="row" dy="1em" xml:space="preserve">ProviderEventPaymentReceived</tspan></text></g></g><g class="edgeLabel"><g class="label" transform="translate(1746.8203125, 907) translate(-113.625, -9.5)"><rect style="fill:#e8e8e8" width="227.109" height="19.031" rx="0" ry="0"/><text><tspan x="0" class="row" dy="1em" xml:space="preserve">ProviderEventPaymentReceived</tspan></text></g></g><g class="edgeLabel"><g class="label" transform="translate(3259.48828125, 1179) translate(-113.625, -9.5)"><rect style="fill:#e8e8e8" width="227.109" height="19.031" rx="0" ry="0"/><text><tspan x="0" class="row" dy="1em" xml:space="preserve">ProviderEventPaymentReceived</tspan></text></g></g><g class="edgeLabel"><g class="label" transform="translate(3021.32421875, 1179) translate(-84.5390625, -9.5)"><rect style="fill:#e8e8e8" width="168.969" height="19.031" rx="0" ry="0"/><text><tspan x="0" class="row" dy="1em" xml:space="preserve">ProviderEventComplete</tspan></text></g></g><g class="edgeLabel"><g class="label" transform="translate(3326.30078125, 1333.5) translate(-84.5390625, -9.5)"><rect style="fill:#e8e8e8" width="168.969" height="19.031" rx="0" ry="0"/><text><tspan x="0" class="row" dy="1em" xml:space="preserve">ProviderEventComplete</tspan></text></g></g><g class="edgeLabel"><g class="label" transform="translate(3207.21875, 1463) translate(-113.4453125, -9.5)"><rect style="fill:#e8e8e8" width="226.75" height="19.031" rx="0" ry="0"/><text><tspan x="0" class="row" dy="1em" xml:space="preserve">ProviderEventCleanupComplete</tspan></text></g></g><g class="edgeLabel"><g class="label" transform="translate(1587.8671875, 1333.5) translate(-108.578125, -9.5)"><rect style="fill:#e8e8e8" width="217.031" height="19.031" rx="0" ry="0"/><text><tspan x="0" class="row" dy="1em" xml:space="preserve">ProviderEventCancelComplete</tspan></text></g></g><g class="edgeLabel"><g class="label" transform="translate(1290.23046875, 278) translate(-108.578125, -9.5)"><rect style="fill:#e8e8e8" width="217.031" height="19.031" rx="0" ry="0"/><text><tspan x="0" class="row" dy="1em" xml:space="preserve">ProviderEventCancelComplete</tspan></text></g></g><g class="edgeLabel"><g class="label" transform="translate(0, 0)"><rect style="fill:#e8e8e8" width="0" height="0" rx="0" ry="0"/></g></g><g class="edgeLabel"><g class="label" transform="translate(0, 0)"><rect style="fill:#e8e8e8" width="0" height="0" rx="0" ry="0"/></g></g><g class="edgeLabel"><g class="label" transform="translate(0, 0)"><rect style="fill:#e8e8e8" width="0" height="0" rx="0" ry="0"/></g></g><g class="edgeLabel"><g class="label" transform="translate(0, 0)"><rect style="fill:#e8e8e8" width="0" height="0" rx="0" ry="0"/></g></g><g class="edgeLabel"><g class="label" transform="translate(0, 0)"><rect style="fill:#e8e8e8" width="0" height="0" rx="0" ry="0"/></g></g><g class="edgeLabel"><g class="label" transform="translate(0, 0)"><rect style="fill:#e8e8e8" width="0" height="0" rx="0" ry="0"/></g></g></g><g class="nodes"><g id="DealStatusNew" class="node statediagram-state" transform="translate(592.1171875, 188.25)"><rect width="121.516" height="34" x="-60.758" y="-17" class="outer title-state"/><line x1="-60.758" x2="60.758" y1="9.5" y2="9.5" class="divider"/><g class="label"><text transform="translate(-53.2578125, -14)"><tspan x="0" class="title-row" dy="1em" xml:space="preserve">DealStatusNew</tspan></text></g></g><g id="DealStatusUnsealing" class="node statediagram-state" transform="translate(1108.65234375, 518.75)"><rect width="197.5" height="60.5" x="-98.75" y="-30.25" class="outer title-state"/><line x1="-98.75" x2="98.75" y1="-3.75" y2="-3.75" class="divider"/><g class="label"><text transform="translate(-91.25, -27.25)"><tspan x="0" class="title-row" dy="1em" xml:space="preserve">DealStatusUnsealing</tspan></text><text transform="translate(-91.25, -27.25) translate( 0, 26.5)"><tspan x="0" class="title-row" dy="1em" xml:space="preserve">On entry runs UnsealData</tspan></text></g></g><g id="DealStatusUnsealed" class="node statediagram-state" transform="translate(1286.3671875, 673.25)"><rect width="209.141" height="60.5" x="-104.57" y="-30.25" class="outer title-state"/><line x1="-104.57" x2="104.57" y1="-3.75" y2="-3.75" class="divider"/><g class="label"><text transform="translate(-97.0703125, -27.25)"><tspan x="0" class="title-row" dy="1em" xml:space="preserve">DealStatusUnsealed</tspan></text><text transform="translate(-97.0703125, -27.25) translate( 0, 26.5)"><tspan x="0" class="title-row" dy="1em" xml:space="preserve">On entry runs UnpauseDeal</tspan></text></g></g><g id="DealStatusFundsNeededUnseal" class="node statediagram-state" transform="translate(1537.59765625, 353.5)"><rect width="233.609" height="60.5" x="-116.805" y="-30.25" class="outer title-state"/><line x1="-116.805" x2="116.805" y1="-3.75" y2="-3.75" class="divider"/><g class="label"><text transform="translate(-109.3046875, -27.25)"><tspan x="0" class="title-row" dy="1em" xml:space="preserve">DealStatusFundsNeededUnseal</tspan></text><text transform="translate(-109.3046875, -27.25) translate( 0, 26.5)"><tspan x="0" class="title-row" dy="1em" xml:space="preserve">On entry runs TrackTransfer</tspan></text></g></g><g id="DealStatusFailing" class="node statediagram-state" transform="translate(1587.8671875, 1243.75)"><rect width="196.844" height="60.5" x="-98.422" y="-30.25" class="outer title-state"/><line x1="-98.422" x2="98.422" y1="-3.75" y2="-3.75" class="divider"/><g class="label"><text transform="translate(-90.921875, -27.25)"><tspan x="0" class="title-row" dy="1em" xml:space="preserve">DealStatusFailing</tspan></text><text transform="translate(-90.921875, -27.25) translate( 0, 26.5)"><tspan x="0" class="title-row" dy="1em" xml:space="preserve">On entry runs CancelDeal</tspan></text></g></g><g id="DealStatusFundsNeeded" class="node statediagram-state" transform="translate(1519.1328125, 958.5)"><rect width="186.172" height="34" x="-93.086" y="-17" class="outer title-state"/><line x1="-93.086" x2="93.086" y1="9.5" y2="9.5" class="divider"/><g class="label"><text transform="translate(-85.5859375, -14)"><tspan x="0" class="title-row" dy="1em" xml:space="preserve">DealStatusFundsNeeded</tspan></text></g></g><g id="DealStatusOngoing" class="node statediagram-state" transform="translate(2137.84765625, 822.5)"><rect width="148.156" height="34" x="-74.078" y="-17" class="outer title-state"/><line x1="-74.078" x2="74.078" y1="9.5" y2="9.5" class="divider"/><g class="label"><text transform="translate(-66.578125, -14)"><tspan x="0" class="title-row" dy="1em" xml:space="preserve">DealStatusOngoing</tspan></text></g></g><g id="DealStatusFundsNeededLastPayment" class="node statediagram-state" transform="translate(2552.58984375, 1119.5)"><rect width="277.813" height="34" x="-138.906" y="-17" class="outer title-state"/><line x1="-138.906" x2="138.906" y1="9.5" y2="9.5" class="divider"/><g class="label"><text transform="translate(-131.40625, -14)"><tspan x="0" class="title-row" dy="1em" xml:space="preserve">DealStatusFundsNeededLastPayment</tspan></text></g></g><g id="DealStatusCompleted" class="node statediagram-state" transform="translate(3207.21875, 1514.5)"><rect width="168.453" height="34" x="-84.227" y="-17" class="outer title-state"/><line x1="-84.227" x2="84.227" y1="9.5" y2="9.5" class="divider"/><g class="label"><text transform="translate(-76.7265625, -14)"><tspan x="0" class="title-row" dy="1em" xml:space="preserve">DealStatusCompleted</tspan></text></g></g><g id="DealStatusErrored" class="node statediagram-state" transform="translate(1587.8671875, 1398.25)"><rect width="144.125" height="34" x="-72.063" y="-17" class="outer title-state"/><line x1="-72.063" x2="72.063" y1="9.5" y2="9.5" class="divider"/><g class="label"><text transform="translate(-64.5625, -14)"><tspan x="0" class="title-row" dy="1em" xml:space="preserve">DealStatusErrored</tspan></text></g></g><g id="DealStatusBlocksComplete" class="node statediagram-state" transform="translate(2786.95703125, 958.5)"><rect width="204.375" height="34" x="-102.188" y="-17" class="outer title-state"/><line x1="-102.188" x2="102.188" y1="9.5" y2="9.5" class="divider"/><g class="label"><text transform="translate(-94.6875, -14)"><tspan x="0" class="title-row" dy="1em" xml:space="preserve">DealStatusBlocksComplete</tspan></text></g></g><g id="DealStatusFinalizing" class="node statediagram-state" transform="translate(3326.30078125, 1243.75)"><rect width="159" height="34" x="-79.5" y="-17" class="outer title-state"/><line x1="-79.5" x2="79.5" y1="9.5" y2="9.5" class="divider"/><g class="label"><text transform="translate(-72, -14)"><tspan x="0" class="title-row" dy="1em" xml:space="preserve">DealStatusFinalizing</tspan></text></g></g><g id="DealStatusCompleting" class="node statediagram-state" transform="translate(3207.21875, 1398.25)"><rect width="206.578" height="60.5" x="-103.289" y="-30.25" class="outer title-state"/><line x1="-103.289" x2="103.289" y1="-3.75" y2="-3.75" class="divider"/><g class="label"><text transform="translate(-95.7890625, -27.25)"><tspan x="0" class="title-row" dy="1em" xml:space="preserve">DealStatusCompleting</tspan></text><text transform="translate(-95.7890625, -27.25) translate( 0, 26.5)"><tspan x="0" class="title-row" dy="1em" xml:space="preserve">On entry runs CleanupDeal</tspan></text></g></g><g id="DealStatusCancelling" class="node statediagram-state" transform="translate(1290.23046875, 188.25)"><rect width="196.844" height="60.5" x="-98.422" y="-30.25" class="outer title-state"/><line x1="-98.422" x2="98.422" y1="-3.75" y2="-3.75" class="divider"/><g class="label"><text transform="translate(-90.921875, -27.25)"><tspan x="0" class="title-row" dy="1em" xml:space="preserve">DealStatusCancelling</tspan></text><text transform="translate(-90.921875, -27.25) translate( 0, 26.5)"><tspan x="0" class="title-row" dy="1em" xml:space="preserve">On entry runs CancelDeal</tspan></text></g></g><g id="DealStatusCancelled" class="node statediagram-state" transform="translate(1290.23046875, 353.5)"><rect width="161.125" height="34" x="-80.563" y="-17" class="outer title-state"/><line x1="-80.563" x2="80.563" y1="9.5" y2="9.5" class="divider"/><g class="label"><text transform="translate(-73.0625, -14)"><tspan x="0" class="title-row" dy="1em" xml:space="preserve">DealStatusCancelled</tspan></text></g></g><g id="root_start" class="node default" transform="translate(592.1171875, 58)"><circle width="14" height="14" r="7" class="state-start"/></g><g id="DealStatusNew----note" class="node statediagram-note" transform="translate(318.046875, 353.5)"><rect width="550.094" height="82" x="-275.047" y="-41"/><g class="label"><text transform="translate(-267.546875, -33.5)"><tspan x="0" class="row" dy="1em" xml:space="preserve">The following events are not shown cause they can trigger from any state.</tspan><tspan x="0" class="row" dy="1em" xml:space="preserve">ProviderEventDataTransferError - transitions state to DealStatusErrored</tspan><tspan x="0" class="row" dy="1em" xml:space="preserve">ProviderEventMultiStoreError - transitions state to DealStatusErrored</tspan><tspan x="0" class="row" dy="1em" xml:space="preserve">ProviderEventClientCancelled - transitions state to DealStatusCancelling</tspan></text></g></g><g id="DealStatusFailing----note" class="node statediagram-note" transform="translate(1844.7265625, 1119.5)"><rect width="346.25" height="50" x="-173.125" y="-25"/><g class="label"><text transform="translate(-165.625, -17.5)"><tspan x="0" class="row" dy="1em" xml:space="preserve">The following events only record in this state.</tspan><tspan x="0" class="row" dy="1em" xml:space="preserve">ProviderEventClientCancelled</tspan></text></g></g><g id="DealStatusFundsNeeded----note" class="node statediagram-note" transform="translate(1613.1953125, 822.5)"><rect width="346.25" height="50" x="-173.125" y="-25"/><g class="label"><text transform="translate(-165.625, -17.5)"><tspan x="0" class="row" dy="1em" xml:space="preserve">The following events only record in this state.</tspan><tspan x="0" class="row" dy="1em" xml:space="preserve">ProviderEventPaymentRequested</tspan></text></g></g><g id="DealStatusOngoing----note" class="node statediagram-note" transform="translate(2190.36328125, 673.25)"><rect width="346.25" height="50" x="-173.125" y="-25"/><g class="label"><text transform="translate(-165.625, -17.5)"><tspan x="0" class="row" dy="1em" xml:space="preserve">The following events only record in this state.</tspan><tspan x="0" class="row" dy="1em" xml:space="preserve">ProviderEventPaymentReceived</tspan></text></g></g><g id="DealStatusBlocksComplete----note" class="node statediagram-note" transform="translate(2927.26171875, 822.5)"><rect width="346.25" height="50" x="-173.125" y="-25"/><g class="label"><text transform="translate(-165.625, -17.5)"><tspan x="0" class="row" dy="1em" xml:space="preserve">The following events only record in this state.</tspan><tspan x="0" class="row" dy="1em" xml:space="preserve">ProviderEventPaymentReceived</tspan></text></g></g><g id="DealStatusFinalizing----note" class="node statediagram-note" transform="translate(3393.11328125, 1119.5)"><rect width="346.25" height="50" x="-173.125" y="-25"/><g class="label"><text transform="translate(-165.625, -17.5)"><tspan x="0" class="row" dy="1em" xml:space="preserve">The following events only record in this state.</tspan><tspan x="0" class="row" dy="1em" xml:space="preserve">ProviderEventPaymentReceived</tspan></text></g></g><g id="DealStatusCancelling----note" class="node statediagram-note" transform="translate(1290.23046875, 58)"><rect width="346.25" height="50" x="-173.125" y="-25"/><g class="label"><text transform="translate(-165.625, -17.5)"><tspan x="0" class="row" dy="1em" xml:space="preserve">The following events only record in this state.</tspan><tspan x="0" class="row" dy="1em" xml:space="preserve">ProviderEventClientCancelled</tspan></text></g></g></g></g></g></svg>